<mxfile host="app.diagrams.net" modified="2023-12-19T09:22:44.401Z" agent="Mozilla/5.0 (Windows NT 10.0; Win64; x64) AppleWebKit/537.36 (KHTML, like Gecko) Chrome/120.0.0.0 Safari/537.36 Edg/120.0.0.0" etag="BrlOLO6eGWFVRtoszYok" version="22.1.11" type="device">
  <diagram name="第 1 页" id="BuwkmsPcmdFG3GMaUP5k">
    <mxGraphModel dx="996" dy="569" grid="1" gridSize="10" guides="1" tooltips="1" connect="1" arrows="1" fold="1" page="1" pageScale="1" pageWidth="2339" pageHeight="3300" math="0" shadow="0">
      <root>
        <mxCell id="0" />
        <mxCell id="1" parent="0" />
        <mxCell id="NCV-lj4KWRaKkDm543wy-3" value="" style="shape=umlLifeline;perimeter=lifelinePerimeter;whiteSpace=wrap;html=1;container=1;dropTarget=0;collapsible=0;recursiveResize=0;outlineConnect=0;portConstraint=eastwest;newEdgeStyle={&quot;curved&quot;:0,&quot;rounded&quot;:0};participant=umlActor;" parent="1" vertex="1">
          <mxGeometry x="640" y="120" width="20" height="600" as="geometry" />
        </mxCell>
        <mxCell id="NCV-lj4KWRaKkDm543wy-9" value="" style="html=1;points=[[0,0,0,0,5],[0,1,0,0,-5],[1,0,0,0,5],[1,1,0,0,-5]];perimeter=orthogonalPerimeter;outlineConnect=0;targetShapes=umlLifeline;portConstraint=eastwest;newEdgeStyle={&quot;curved&quot;:0,&quot;rounded&quot;:0};" parent="NCV-lj4KWRaKkDm543wy-3" vertex="1">
          <mxGeometry x="5" y="50" width="10" height="40" as="geometry" />
        </mxCell>
        <mxCell id="NCV-lj4KWRaKkDm543wy-17" value="" style="html=1;points=[[0,0,0,0,5],[0,1,0,0,-5],[1,0,0,0,5],[1,1,0,0,-5]];perimeter=orthogonalPerimeter;outlineConnect=0;targetShapes=umlLifeline;portConstraint=eastwest;newEdgeStyle={&quot;curved&quot;:0,&quot;rounded&quot;:0};" parent="NCV-lj4KWRaKkDm543wy-3" vertex="1">
          <mxGeometry x="5" y="130" width="10" height="70" as="geometry" />
        </mxCell>
        <mxCell id="NCV-lj4KWRaKkDm543wy-31" value="" style="html=1;points=[[0,0,0,0,5],[0,1,0,0,-5],[1,0,0,0,5],[1,1,0,0,-5]];perimeter=orthogonalPerimeter;outlineConnect=0;targetShapes=umlLifeline;portConstraint=eastwest;newEdgeStyle={&quot;curved&quot;:0,&quot;rounded&quot;:0};" parent="NCV-lj4KWRaKkDm543wy-3" vertex="1">
          <mxGeometry x="5" y="280" width="10" height="80" as="geometry" />
        </mxCell>
        <mxCell id="NCV-lj4KWRaKkDm543wy-4" value="" style="shape=umlLifeline;perimeter=lifelinePerimeter;whiteSpace=wrap;html=1;container=1;dropTarget=0;collapsible=0;recursiveResize=0;outlineConnect=0;portConstraint=eastwest;newEdgeStyle={&quot;curved&quot;:0,&quot;rounded&quot;:0};participant=umlActor;" parent="1" vertex="1">
          <mxGeometry x="225" y="120" width="20" height="600" as="geometry" />
        </mxCell>
        <mxCell id="NCV-lj4KWRaKkDm543wy-8" value="" style="html=1;points=[[0,0,0,0,5],[0,1,0,0,-5],[1,0,0,0,5],[1,1,0,0,-5]];perimeter=orthogonalPerimeter;outlineConnect=0;targetShapes=umlLifeline;portConstraint=eastwest;newEdgeStyle={&quot;curved&quot;:0,&quot;rounded&quot;:0};" parent="NCV-lj4KWRaKkDm543wy-4" vertex="1">
          <mxGeometry x="5" y="50" width="10" height="30" as="geometry" />
        </mxCell>
        <mxCell id="NCV-lj4KWRaKkDm543wy-44" value="" style="html=1;points=[[0,0,0,0,5],[0,1,0,0,-5],[1,0,0,0,5],[1,1,0,0,-5]];perimeter=orthogonalPerimeter;outlineConnect=0;targetShapes=umlLifeline;portConstraint=eastwest;newEdgeStyle={&quot;curved&quot;:0,&quot;rounded&quot;:0};" parent="NCV-lj4KWRaKkDm543wy-4" vertex="1">
          <mxGeometry x="5" y="140" width="10" height="60" as="geometry" />
        </mxCell>
        <mxCell id="NCV-lj4KWRaKkDm543wy-45" value="" style="html=1;points=[[0,0,0,0,5],[0,1,0,0,-5],[1,0,0,0,5],[1,1,0,0,-5]];perimeter=orthogonalPerimeter;outlineConnect=0;targetShapes=umlLifeline;portConstraint=eastwest;newEdgeStyle={&quot;curved&quot;:0,&quot;rounded&quot;:0};" parent="NCV-lj4KWRaKkDm543wy-4" vertex="1">
          <mxGeometry x="5" y="280" width="10" height="80" as="geometry" />
        </mxCell>
        <mxCell id="NCV-lj4KWRaKkDm543wy-5" value="&lt;font size=&quot;1&quot; face=&quot;Times New Roman&quot;&gt;&lt;b style=&quot;font-size: 15px;&quot;&gt;Appointments&lt;/b&gt;&lt;/font&gt;" style="shape=umlLifeline;perimeter=lifelinePerimeter;whiteSpace=wrap;html=1;container=1;dropTarget=0;collapsible=0;recursiveResize=0;outlineConnect=0;portConstraint=eastwest;newEdgeStyle={&quot;curved&quot;:0,&quot;rounded&quot;:0};" parent="1" vertex="1">
          <mxGeometry x="380" y="120" width="100" height="600" as="geometry" />
        </mxCell>
        <mxCell id="NCV-lj4KWRaKkDm543wy-14" value="" style="html=1;points=[[0,0,0,0,5],[0,1,0,0,-5],[1,0,0,0,5],[1,1,0,0,-5]];perimeter=orthogonalPerimeter;outlineConnect=0;targetShapes=umlLifeline;portConstraint=eastwest;newEdgeStyle={&quot;curved&quot;:0,&quot;rounded&quot;:0};" parent="NCV-lj4KWRaKkDm543wy-5" vertex="1">
          <mxGeometry x="45" y="50" width="10" height="30" as="geometry" />
        </mxCell>
        <mxCell id="NCV-lj4KWRaKkDm543wy-28" value="" style="html=1;points=[[0,0,0,0,5],[0,1,0,0,-5],[1,0,0,0,5],[1,1,0,0,-5]];perimeter=orthogonalPerimeter;outlineConnect=0;targetShapes=umlLifeline;portConstraint=eastwest;newEdgeStyle={&quot;curved&quot;:0,&quot;rounded&quot;:0};" parent="NCV-lj4KWRaKkDm543wy-5" vertex="1">
          <mxGeometry x="45" y="280" width="10" height="80" as="geometry" />
        </mxCell>
        <mxCell id="NCV-lj4KWRaKkDm543wy-21" value="" style="html=1;points=[[0,0,0,0,5],[0,1,0,0,-5],[1,0,0,0,5],[1,1,0,0,-5]];perimeter=orthogonalPerimeter;outlineConnect=0;targetShapes=umlLifeline;portConstraint=eastwest;newEdgeStyle={&quot;curved&quot;:0,&quot;rounded&quot;:0};" parent="NCV-lj4KWRaKkDm543wy-5" vertex="1">
          <mxGeometry x="45" y="140" width="10" height="60" as="geometry" />
        </mxCell>
        <mxCell id="nsqOyJmTtHDTBHi2q4xo-20" value="&lt;font style=&quot;font-size: 14px;&quot; face=&quot;Times New Roman&quot;&gt;rescheduleAppointment()&lt;/font&gt;" style="html=1;align=left;spacingLeft=2;endArrow=block;rounded=0;edgeStyle=orthogonalEdgeStyle;curved=0;rounded=0;entryX=1;entryY=1;entryDx=0;entryDy=-5;entryPerimeter=0;exitX=1;exitY=0;exitDx=0;exitDy=5;exitPerimeter=0;" edge="1" parent="NCV-lj4KWRaKkDm543wy-5" source="NCV-lj4KWRaKkDm543wy-21">
          <mxGeometry relative="1" as="geometry">
            <mxPoint x="55" y="110" as="sourcePoint" />
            <Array as="points">
              <mxPoint x="90" y="145" />
              <mxPoint x="90" y="160" />
            </Array>
            <mxPoint x="55" y="160" as="targetPoint" />
          </mxGeometry>
        </mxCell>
        <mxCell id="NCV-lj4KWRaKkDm543wy-6" value="Patient" style="text;html=1;align=center;verticalAlign=middle;resizable=0;points=[];autosize=1;strokeColor=none;fillColor=none;fontFamily=Times New Roman;fontStyle=1;fontSize=15;" parent="1" vertex="1">
          <mxGeometry x="200" y="90" width="70" height="30" as="geometry" />
        </mxCell>
        <mxCell id="NCV-lj4KWRaKkDm543wy-7" value="Doctor" style="text;html=1;align=center;verticalAlign=middle;resizable=0;points=[];autosize=1;strokeColor=none;fillColor=none;fontFamily=Times New Roman;fontStyle=1;fontSize=15;" parent="1" vertex="1">
          <mxGeometry x="615" y="90" width="70" height="30" as="geometry" />
        </mxCell>
        <mxCell id="NCV-lj4KWRaKkDm543wy-19" value="&lt;b&gt;&lt;font style=&quot;font-size: 14px;&quot; face=&quot;Times New Roman&quot;&gt;opt&lt;/font&gt;&lt;/b&gt;" style="shape=umlFrame;whiteSpace=wrap;html=1;pointerEvents=0;recursiveResize=0;container=0;collapsible=0;width=50;" parent="1" vertex="1">
          <mxGeometry x="190" y="220" width="520" height="120" as="geometry" />
        </mxCell>
        <mxCell id="NCV-lj4KWRaKkDm543wy-36" value="&lt;b&gt;&lt;font style=&quot;font-size: 14px;&quot; face=&quot;Times New Roman&quot;&gt;opt&lt;/font&gt;&lt;/b&gt;" style="shape=umlFrame;whiteSpace=wrap;html=1;pointerEvents=0;recursiveResize=0;container=0;collapsible=0;width=50;" parent="1" vertex="1">
          <mxGeometry x="190" y="360" width="520" height="150" as="geometry" />
        </mxCell>
        <mxCell id="NCV-lj4KWRaKkDm543wy-52" value="[Modify Appointment]" style="text;whiteSpace=wrap;fontFamily=Times New Roman;fontStyle=1;fontSize=14;" parent="1" vertex="1">
          <mxGeometry x="245" y="220" width="140" height="40" as="geometry" />
        </mxCell>
        <mxCell id="NCV-lj4KWRaKkDm543wy-54" value="[Cancel Appointment]" style="text;whiteSpace=wrap;fontFamily=Times New Roman;fontStyle=1;fontSize=14;" parent="1" vertex="1">
          <mxGeometry x="240" y="360" width="140" height="40" as="geometry" />
        </mxCell>
        <mxCell id="nsqOyJmTtHDTBHi2q4xo-8" value="&lt;span style=&quot;color: rgb(0, 0, 0); font-size: 14px; font-style: normal; font-variant-ligatures: normal; font-variant-caps: normal; font-weight: 400; letter-spacing: normal; orphans: 2; text-indent: 0px; text-transform: none; widows: 2; word-spacing: 0px; -webkit-text-stroke-width: 0px; background-color: rgb(251, 251, 251); text-decoration-thickness: initial; text-decoration-style: initial; text-decoration-color: initial; float: none; display: inline !important;&quot;&gt;createAppointment()&lt;/span&gt;" style="text;whiteSpace=wrap;html=1;fontFamily=Times New Roman;fontSize=14;align=center;" vertex="1" parent="1">
          <mxGeometry x="245" y="150" width="150" height="30" as="geometry" />
        </mxCell>
        <mxCell id="nsqOyJmTtHDTBHi2q4xo-9" value="" style="html=1;verticalAlign=bottom;endArrow=block;curved=0;rounded=0;exitX=1;exitY=0;exitDx=0;exitDy=5;exitPerimeter=0;entryX=0;entryY=0;entryDx=0;entryDy=5;entryPerimeter=0;" edge="1" parent="1" source="NCV-lj4KWRaKkDm543wy-8" target="NCV-lj4KWRaKkDm543wy-14">
          <mxGeometry relative="1" as="geometry">
            <mxPoint x="330" y="80" as="sourcePoint" />
            <mxPoint x="590" y="100" as="targetPoint" />
          </mxGeometry>
        </mxCell>
        <mxCell id="nsqOyJmTtHDTBHi2q4xo-10" value="&lt;span style=&quot;color: rgb(0, 0, 0); font-family: &amp;quot;Times New Roman&amp;quot;; font-size: 14px; font-style: normal; font-variant-ligatures: normal; font-variant-caps: normal; font-weight: 400; letter-spacing: normal; orphans: 2; text-align: left; text-indent: 0px; text-transform: none; widows: 2; word-spacing: 0px; -webkit-text-stroke-width: 0px; background-color: rgb(251, 251, 251); text-decoration-thickness: initial; text-decoration-style: initial; text-decoration-color: initial; float: none; display: inline !important;&quot;&gt;getAppointmentsByDoctor()&lt;/span&gt;" style="text;whiteSpace=wrap;html=1;" vertex="1" parent="1">
          <mxGeometry x="460" y="150" width="190" height="40" as="geometry" />
        </mxCell>
        <mxCell id="nsqOyJmTtHDTBHi2q4xo-11" value="" style="html=1;verticalAlign=bottom;endArrow=block;curved=0;rounded=0;exitX=1;exitY=0;exitDx=0;exitDy=5;exitPerimeter=0;" edge="1" parent="1" source="NCV-lj4KWRaKkDm543wy-14" target="NCV-lj4KWRaKkDm543wy-9">
          <mxGeometry relative="1" as="geometry">
            <mxPoint x="330" y="80" as="sourcePoint" />
            <mxPoint x="590" y="100" as="targetPoint" />
          </mxGeometry>
        </mxCell>
        <mxCell id="nsqOyJmTtHDTBHi2q4xo-15" value="&lt;span style=&quot;color: rgb(0, 0, 0); font-family: &amp;quot;Times New Roman&amp;quot;; font-size: 14px; font-style: normal; font-variant-ligatures: normal; font-variant-caps: normal; font-weight: 400; letter-spacing: normal; orphans: 2; text-indent: 0px; text-transform: none; widows: 2; word-spacing: 0px; -webkit-text-stroke-width: 0px; background-color: rgb(251, 251, 251); text-decoration-thickness: initial; text-decoration-style: initial; text-decoration-color: initial; float: none; display: inline !important;&quot;&gt;requestReschedule()&lt;/span&gt;" style="text;whiteSpace=wrap;html=1;align=center;" vertex="1" parent="1">
          <mxGeometry x="260" y="240" width="150" height="40" as="geometry" />
        </mxCell>
        <mxCell id="nsqOyJmTtHDTBHi2q4xo-16" value="" style="html=1;verticalAlign=bottom;endArrow=block;curved=0;rounded=0;exitX=1;exitY=0;exitDx=0;exitDy=5;exitPerimeter=0;" edge="1" parent="1" source="NCV-lj4KWRaKkDm543wy-44" target="NCV-lj4KWRaKkDm543wy-21">
          <mxGeometry relative="1" as="geometry">
            <mxPoint x="330" y="80" as="sourcePoint" />
            <mxPoint x="590" y="100" as="targetPoint" />
          </mxGeometry>
        </mxCell>
        <mxCell id="nsqOyJmTtHDTBHi2q4xo-17" value="return" style="html=1;verticalAlign=bottom;endArrow=open;dashed=1;endSize=8;curved=0;rounded=0;entryX=1;entryY=1;entryDx=0;entryDy=-5;entryPerimeter=0;exitX=0;exitY=1;exitDx=0;exitDy=-5;exitPerimeter=0;" edge="1" parent="1" source="NCV-lj4KWRaKkDm543wy-21" target="NCV-lj4KWRaKkDm543wy-44">
          <mxGeometry relative="1" as="geometry">
            <mxPoint x="320" y="100" as="targetPoint" />
            <mxPoint x="230" y="60" as="sourcePoint" />
          </mxGeometry>
        </mxCell>
        <mxCell id="nsqOyJmTtHDTBHi2q4xo-21" value="return" style="html=1;verticalAlign=bottom;endArrow=open;dashed=1;endSize=8;curved=0;rounded=0;entryX=0;entryY=1;entryDx=0;entryDy=-5;entryPerimeter=0;exitX=1;exitY=1;exitDx=0;exitDy=-5;exitPerimeter=0;" edge="1" parent="1" source="NCV-lj4KWRaKkDm543wy-21" target="NCV-lj4KWRaKkDm543wy-17">
          <mxGeometry relative="1" as="geometry">
            <mxPoint x="250" y="325" as="targetPoint" />
            <mxPoint x="435" y="325" as="sourcePoint" />
          </mxGeometry>
        </mxCell>
        <mxCell id="nsqOyJmTtHDTBHi2q4xo-22" value="" style="html=1;verticalAlign=bottom;endArrow=block;curved=0;rounded=0;entryX=0;entryY=0;entryDx=0;entryDy=5;entryPerimeter=0;exitX=1;exitY=0;exitDx=0;exitDy=5;exitPerimeter=0;" edge="1" parent="1" source="NCV-lj4KWRaKkDm543wy-45" target="NCV-lj4KWRaKkDm543wy-28">
          <mxGeometry relative="1" as="geometry">
            <mxPoint x="330" y="80" as="sourcePoint" />
            <mxPoint x="590" y="100" as="targetPoint" />
          </mxGeometry>
        </mxCell>
        <mxCell id="nsqOyJmTtHDTBHi2q4xo-23" value="&lt;span style=&quot;border-color: var(--border-color); color: rgb(0, 0, 0); font-style: normal; font-variant-ligatures: normal; font-variant-caps: normal; font-weight: 400; letter-spacing: normal; orphans: 2; text-indent: 0px; text-transform: none; widows: 2; word-spacing: 0px; -webkit-text-stroke-width: 0px; text-decoration-thickness: initial; text-decoration-style: initial; text-decoration-color: initial; font-family: &amp;quot;Times New Roman&amp;quot;; font-size: 14px; background-color: rgb(251, 251, 251); float: none; display: inline !important;&quot;&gt;cancelAppointment()&lt;/span&gt;&lt;br style=&quot;border-color: var(--border-color); color: rgb(0, 0, 0); font-style: normal; font-variant-ligatures: normal; font-variant-caps: normal; font-weight: 400; letter-spacing: normal; orphans: 2; text-indent: 0px; text-transform: none; widows: 2; word-spacing: 0px; -webkit-text-stroke-width: 0px; text-decoration-thickness: initial; text-decoration-style: initial; text-decoration-color: initial; font-family: &amp;quot;Times New Roman&amp;quot;; font-size: 14px; background-color: rgb(251, 251, 251);&quot;&gt;" style="text;whiteSpace=wrap;html=1;align=center;" vertex="1" parent="1">
          <mxGeometry x="245" y="380" width="150" height="40" as="geometry" />
        </mxCell>
        <mxCell id="nsqOyJmTtHDTBHi2q4xo-24" value="return" style="html=1;verticalAlign=bottom;endArrow=open;dashed=1;endSize=8;curved=0;rounded=0;entryX=1;entryY=1;entryDx=0;entryDy=-5;entryPerimeter=0;exitX=0;exitY=1;exitDx=0;exitDy=-5;exitPerimeter=0;" edge="1" parent="1" source="NCV-lj4KWRaKkDm543wy-28" target="NCV-lj4KWRaKkDm543wy-45">
          <mxGeometry relative="1" as="geometry">
            <mxPoint x="250" y="325" as="targetPoint" />
            <mxPoint x="435" y="325" as="sourcePoint" />
          </mxGeometry>
        </mxCell>
        <mxCell id="nsqOyJmTtHDTBHi2q4xo-25" value="return" style="html=1;verticalAlign=bottom;endArrow=open;dashed=1;endSize=8;curved=0;rounded=0;exitX=1;exitY=1;exitDx=0;exitDy=-5;exitPerimeter=0;" edge="1" parent="1" source="NCV-lj4KWRaKkDm543wy-28" target="NCV-lj4KWRaKkDm543wy-31">
          <mxGeometry relative="1" as="geometry">
            <mxPoint x="260" y="335" as="targetPoint" />
            <mxPoint x="445" y="335" as="sourcePoint" />
          </mxGeometry>
        </mxCell>
        <mxCell id="nsqOyJmTtHDTBHi2q4xo-26" value="checkPayment()" style="text;html=1;align=center;verticalAlign=middle;resizable=0;points=[];autosize=1;strokeColor=none;fillColor=none;fontStyle=0;fontFamily=Times New Roman;fontSize=14;" vertex="1" parent="1">
          <mxGeometry x="710" y="150" width="110" height="30" as="geometry" />
        </mxCell>
        <mxCell id="nsqOyJmTtHDTBHi2q4xo-27" value="&lt;font face=&quot;Times New Roman&quot;&gt;&lt;span style=&quot;font-size: 15px;&quot;&gt;&lt;b&gt;Billing&lt;/b&gt;&lt;/span&gt;&lt;/font&gt;" style="shape=umlLifeline;perimeter=lifelinePerimeter;whiteSpace=wrap;html=1;container=1;dropTarget=0;collapsible=0;recursiveResize=0;outlineConnect=0;portConstraint=eastwest;newEdgeStyle={&quot;curved&quot;:0,&quot;rounded&quot;:0};" vertex="1" parent="1">
          <mxGeometry x="840" y="120" width="100" height="600" as="geometry" />
        </mxCell>
        <mxCell id="nsqOyJmTtHDTBHi2q4xo-28" value="" style="html=1;points=[[0,0,0,0,5],[0,1,0,0,-5],[1,0,0,0,5],[1,1,0,0,-5]];perimeter=orthogonalPerimeter;outlineConnect=0;targetShapes=umlLifeline;portConstraint=eastwest;newEdgeStyle={&quot;curved&quot;:0,&quot;rounded&quot;:0};" vertex="1" parent="nsqOyJmTtHDTBHi2q4xo-27">
          <mxGeometry x="45" y="50" width="10" height="40" as="geometry" />
        </mxCell>
        <mxCell id="NCV-lj4KWRaKkDm543wy-15" value="" style="html=1;verticalAlign=bottom;endArrow=block;curved=0;rounded=0;exitX=1;exitY=0;exitDx=0;exitDy=5;exitPerimeter=0;entryX=0;entryY=0;entryDx=0;entryDy=5;entryPerimeter=0;" parent="1" source="NCV-lj4KWRaKkDm543wy-9" target="nsqOyJmTtHDTBHi2q4xo-28" edge="1">
          <mxGeometry relative="1" as="geometry">
            <mxPoint x="800" y="80" as="sourcePoint" />
            <mxPoint x="830" y="250" as="targetPoint" />
            <Array as="points">
              <mxPoint x="790" y="175" />
            </Array>
          </mxGeometry>
        </mxCell>
        <mxCell id="nsqOyJmTtHDTBHi2q4xo-32" value="return" style="html=1;verticalAlign=bottom;endArrow=open;dashed=1;endSize=8;curved=0;rounded=0;entryX=1;entryY=1;entryDx=0;entryDy=-5;entryPerimeter=0;exitX=0;exitY=1;exitDx=0;exitDy=-5;exitPerimeter=0;" edge="1" parent="1" source="nsqOyJmTtHDTBHi2q4xo-28" target="NCV-lj4KWRaKkDm543wy-9">
          <mxGeometry relative="1" as="geometry">
            <mxPoint x="655" y="325" as="targetPoint" />
            <mxPoint x="445" y="325" as="sourcePoint" />
          </mxGeometry>
        </mxCell>
        <mxCell id="nsqOyJmTtHDTBHi2q4xo-33" value="return" style="html=1;verticalAlign=bottom;endArrow=open;dashed=1;endSize=8;curved=0;rounded=0;entryX=1;entryY=1;entryDx=0;entryDy=-5;entryPerimeter=0;exitX=0;exitY=1;exitDx=0;exitDy=-5;exitPerimeter=0;" edge="1" parent="1" source="NCV-lj4KWRaKkDm543wy-14" target="NCV-lj4KWRaKkDm543wy-8">
          <mxGeometry relative="1" as="geometry">
            <mxPoint x="665" y="215" as="targetPoint" />
            <mxPoint x="895" y="215" as="sourcePoint" />
          </mxGeometry>
        </mxCell>
      </root>
    </mxGraphModel>
  </diagram>
</mxfile>
